<?xml version="1.0" encoding="iso-8859-1"?>
<!-- Uploaded to: SVG Repo, www.svgrepo.com, Generator: SVG Repo Mixer Tools -->
<svg version="1.1" id="Layer_1" xmlns="http://www.w3.org/2000/svg" xmlns:xlink="http://www.w3.org/1999/xlink" 
	 viewBox="0 0 512 512" xml:space="preserve">
<polygon style="fill:#5A8BB0;" points="512,457.697 0,457.697 0,411.151 232.726,395.636 512,411.151 "/>
<polygon style="fill:#3C5D76;" points="512,457.697 232.727,457.697 232.727,395.636 512,411.151 "/>
<rect y="54.303" style="fill:#C9E3F7;" width="512" height="356.848"/>
<rect x="232.727" y="54.303" style="fill:#93C7EF;" width="279.273" height="356.848"/>
<polygon style="fill:#3C5D76;" points="403.394,364.606 62.061,364.606 62.061,256 77.576,224.97 62.061,209.455 62.061,100.848 
	403.394,100.848 403.394,209.455 387.879,224.97 403.394,255.998 "/>
<polygon style="fill:#1E2E3B;" points="403.394,364.606 232.727,364.606 232.727,100.848 403.394,100.848 403.394,209.455 
	387.879,224.97 403.394,255.998 "/>
<g>
	<rect x="434.424" y="100.848" style="fill:#E4F1FB;" width="46.545" height="46.545"/>
	<rect x="434.424" y="209.455" style="fill:#E4F1FB;" width="46.545" height="46.545"/>
	<rect x="434.424" y="318.061" style="fill:#E4F1FB;" width="46.545" height="46.545"/>
</g>
<polygon style="fill:#FFFFFF;" points="232.727,308.77 170.668,231.194 150.823,256 62.061,256 62.061,209.455 128.451,209.455 
	170.668,156.684 238.184,240.629 272.463,209.455 403.394,209.455 403.394,256 290.458,256 "/>
</svg>